<?xml version="1.0" encoding="UTF-8"?>
<svg version="1.1" xmlns="http://www.w3.org/2000/svg" width="1254" height="1254">
<path d="M0 0 C413.82 0 827.64 0 1254 0 C1254 413.82 1254 827.64 1254 1254 C840.18 1254 426.36 1254 0 1254 C0 840.18 0 426.36 0 0 Z " fill="#090F1A" transform="translate(0,0)"/>
<path d="M0 0 C193.38 0 386.76 0 586 0 C586 0.33 586 0.66 586 1 C585.41661865 1.02916504 584.8332373 1.05833008 584.23217773 1.08837891 C562.92148469 2.24383942 542.024312 5.45796664 521 9 C519.16622803 9.30744141 519.16622803 9.30744141 517.29541016 9.62109375 C455.04013549 20.28344701 393.90921747 41.77078981 338 71 C337.14567383 71.44504883 336.29134766 71.89009766 335.41113281 72.34863281 C316.62425766 82.18937694 298.16903447 92.8434879 280.73999023 104.95336914 C279 106 279 106 277 106 C277 106.66 277 107.32 277 108 C275.3203125 109.2890625 275.3203125 109.2890625 273.125 110.625 C272.40570313 111.07101563 271.68640625 111.51703125 270.9453125 111.9765625 C269 113 269 113 267 113 C267 113.66 267 114.32 267 115 C261.58823529 119 261.58823529 119 259 119 C259 119.66 259 120.32 259 121 C257.515 121.495 257.515 121.495 256 122 C254.98531812 122.98509932 253.98830528 123.98844048 253 125 C251.16745578 126.42410197 249.31109467 127.81785489 247.4375 129.1875 C246.46683594 129.90292969 245.49617187 130.61835938 244.49609375 131.35546875 C242 133 242 133 240 133 C240 133.66 240 134.32 240 135 C237.51236249 137.27441144 235.40455831 138.84369338 232.25 140.0625 C231.5075 140.371875 230.765 140.68125 230 141 C229.67 141.99 229.34 142.98 229 144 C225.55555556 147 225.55555556 147 223 147 C223 147.66 223 148.32 223 149 C221.28048026 150.53851766 219.49812503 152.00731759 217.6875 153.4375 C213.83532998 156.45235569 213.83532998 156.45235569 210.26953125 159.78515625 C209 161 209 161 207 161 C207 161.66 207 162.32 207 163 C205.5390625 164.5078125 205.5390625 164.5078125 203.625 166.125 C202.99851563 166.66382813 202.37203125 167.20265625 201.7265625 167.7578125 C200 169 200 169 198 169 C198 169.66 198 170.32 198 171 C197.34 171 196.68 171 196 171 C195.76667969 171.57234375 195.53335938 172.1446875 195.29296875 172.734375 C193.69219161 175.53936214 191.76933349 177.15811727 189.3125 179.25 C185.51349801 182.58226746 182.16020164 185.97890964 178.91015625 189.8359375 C176.55258563 192.50688663 174.03614509 195.00097547 171.5 197.5 C167.11649105 201.8371732 162.98634859 206.29691399 159 211 C158.07501361 212.07360201 157.14915396 213.14645195 156.22265625 214.21875 C150.03563121 221.38825125 143.91306425 228.60161914 138 236 C137.24662354 236.94238525 137.24662354 236.94238525 136.47802734 237.90380859 C128.30634034 248.16486109 120.59837429 258.67555427 113.15625 269.4765625 C110.63814991 273.12594352 108.01518251 276.67506849 105.30371094 280.18286133 C103.94628587 282.07486784 102.83956546 284.00623882 101.75 286.0625 C99.52482891 290.2213661 96.96114877 294.10335241 94.3125 298 C88.82173219 306.11333191 83.85354996 314.49338517 79 323 C78.48050781 323.90621094 77.96101563 324.81242187 77.42578125 325.74609375 C69.0334593 340.77532361 61.7215532 356.39031656 54.625 372.0625 C54.33044922 372.71045532 54.03589844 373.35841064 53.73242188 374.02600098 C49.8531515 382.57590855 46.28679694 391.20254121 43 400 C42.22539731 402.02869811 41.450658 404.05734406 40.67578125 406.0859375 C31.98269189 429.11304641 23.74845806 452.38612329 18.54882812 476.47998047 C17.96519482 479.15981275 17.35296071 481.83193367 16.734375 484.50390625 C15.46398605 489.99698979 14.22382241 495.49636568 13 501 C12.81550293 501.82773926 12.63100586 502.65547852 12.44091797 503.50830078 C10.0170296 514.45865048 8.0083373 525.42572322 6.37548828 536.52172852 C6.10677751 538.29525453 5.82207007 540.06638605 5.52685547 541.83569336 C4.00454014 551.13024996 3.15762655 560.43389278 2.375 569.8125 C2.23998405 571.39131036 2.10456976 572.97008671 1.96875 574.54882812 C1.64125437 578.36551013 1.31910192 582.18260744 1 586 C0.67 586 0.34 586 0 586 C0 392.62 0 199.24 0 0 Z " fill="#000000" transform="translate(0,0)"/>
<path d="M0 0 C0.33 0 0.66 0 1 0 C1.06469482 0.83208984 1.12938965 1.66417969 1.19604492 2.52148438 C2.86889895 23.53195657 5.37070778 44.23675676 9 65 C9.20383301 66.1667627 9.40766602 67.33352539 9.61767578 68.53564453 C12.23167377 83.25125064 15.48344919 97.74603536 19.26806641 112.203125 C19.98307171 114.93531337 20.68618809 117.67031923 21.38671875 120.40625 C21.81964111 122.08350677 22.25319964 123.76059951 22.6875 125.4375 C22.87763672 126.17605225 23.06777344 126.91460449 23.26367188 127.67553711 C24.38312075 131.93539113 25.66034582 136.10953349 27.07836914 140.27905273 C28.01628761 143.04808619 28.93156128 145.82413984 29.84275818 148.60206604 C30.77504276 151.44230616 31.71320098 154.2805946 32.65136719 157.11889648 C33.13184 158.57539049 33.61069504 160.03241921 34.08789062 161.48999023 C37.04027165 170.5026823 40.24566177 179.28259752 44 188 C44.52514135 189.30583522 45.04437759 190.61407897 45.5546875 191.92578125 C48.76566221 200.16221639 52.3169297 208.16945594 56.12207031 216.14697266 C57.54423893 219.14871342 58.92305093 222.17050378 60.3125 225.1875 C61.53112211 227.7967244 62.76236601 230.39974323 64 233 C64.34869141 233.73283203 64.69738281 234.46566406 65.05664062 235.22070312 C71.94966548 249.59827335 79.80345391 263.33045116 88 277 C88.51804199 277.8652832 89.03608398 278.73056641 89.56982422 279.62207031 C95.14686767 288.91043589 100.88799875 298.05193756 107 307 C107.79218706 308.18324551 108.58382332 309.36685991 109.375 310.55078125 C120.78523272 327.51322758 133.42075562 343.5489462 146.52783203 359.22363281 C148.51374921 361.61990701 150.43934462 364.06305013 152.375 366.5 C157.01838863 372.1994977 162.08003185 377.49816152 167.15380859 382.8125 C170.36000585 386.17295545 173.51090047 389.55463872 176.546875 393.0703125 C179.90995964 396.94980626 183.46974876 400.58446664 187.125 404.1875 C187.71925781 404.77724609 188.31351563 405.36699219 188.92578125 405.97460938 C190.08468276 407.1245569 191.24479464 408.27328623 192.40625 409.4206543 C193.82299825 410.82459799 195.22871553 412.23965365 196.6328125 413.65625 C200.61165521 417.59569822 204.82270625 421.27362851 209 425 C209.74636719 425.67417969 210.49273437 426.34835937 211.26171875 427.04296875 C227.58830258 441.72810071 245.23982508 454.95359394 263.12451172 467.66650391 C264.67117841 468.76620366 266.21318209 469.87245861 267.75390625 470.98046875 C275.64678981 476.60297971 283.82828005 481.79584275 292 487 C292.77714355 487.49773926 293.55428711 487.99547852 294.35498047 488.50830078 C316.84250534 502.86780461 340.18076874 515.53737269 364.37353516 526.77490234 C366.6994274 527.85979984 369.01409987 528.96405458 371.32421875 530.08203125 C378.00378841 533.29915782 384.74632852 536.14130692 391.7097168 538.67260742 C395.26119981 539.96447673 398.77662853 541.30304012 402.26171875 542.765625 C427.98760734 553.53233419 454.96312445 561.3034192 482 568 C483.05477539 568.26619141 484.10955078 568.53238281 485.19628906 568.80664062 C520.50186648 577.61352606 556.7308557 581.92068029 593 584 C593 584.33 593 584.66 593 585 C397.31 585 201.62 585 0 585 C0 391.95 0 198.9 0 0 Z " fill="#000000" transform="translate(0,669)"/>
<path d="M0 0 C0.33 0 0.66 0 1 0 C1 193.05 1 386.1 1 585 C-193.04 585 -387.08 585 -587 585 C-587 584.67 -587 584.34 -587 584 C-585.67500488 583.89510254 -585.67500488 583.89510254 -584.32324219 583.78808594 C-534.35951453 579.76979804 -485.781925 571.31907187 -438 556 C-436.92943359 555.66129883 -435.85886719 555.32259766 -434.75585938 554.97363281 C-400.3334824 544.04935224 -366.93505998 530.37085382 -335.16308594 513.16162109 C-333.03818276 512.02050492 -330.90141674 510.90630967 -328.7578125 509.80078125 C-294.2033583 491.93318865 -262.16980305 469.46561576 -232 445 C-230.75418701 444.00355513 -229.5080666 443.00749455 -228.26171875 442.01171875 C-220.43059776 435.73277091 -212.83324245 429.31125471 -205.52490234 422.42773438 C-203.9513166 420.95441874 -202.3623099 419.49940602 -200.76953125 418.046875 C-192.4740993 410.44595524 -184.46357666 402.57028661 -176.5 394.625 C-175.98135376 394.10894196 -175.46270752 393.59288391 -174.92834473 393.06118774 C-169.06507762 387.22103272 -163.3623958 381.30938987 -158 375 C-156.89630518 373.73802968 -155.79083263 372.47761195 -154.68359375 371.21875 C-153.60083887 369.9797987 -152.51881277 368.74021013 -151.4375 367.5 C-150.58998169 366.52824829 -150.58998169 366.52824829 -149.7253418 365.53686523 C-146.7794186 362.13542648 -143.95286305 358.71088342 -141.3125 355.0625 C-140.549375 354.051875 -139.78625 353.04125 -139 352 C-138.34 352 -137.68 352 -137 352 C-136.76539063 351.46503906 -136.53078125 350.93007813 -136.2890625 350.37890625 C-134.62822151 347.31389969 -132.52649781 344.66509735 -130.375 341.9375 C-129.45866807 340.75856374 -128.54331413 339.57886672 -127.62890625 338.3984375 C-127.17789551 337.81674805 -126.72688477 337.23505859 -126.26220703 336.63574219 C-108.00166866 312.9712147 -91.89156502 287.40883844 -77.32128906 261.34130859 C-76.1412208 259.25024159 -74.93534038 257.17858462 -73.7109375 255.11328125 C-66.47978437 242.81934199 -60.70703089 229.81218431 -54.83184814 216.83294678 C-54.01161953 215.02560321 -53.18529527 213.22103006 -52.35888672 211.41650391 C-46.28568575 198.15401569 -40.55669762 184.94279881 -36.02246094 171.07470703 C-35.03136101 168.09430769 -34.00602467 165.12809892 -32.97106934 162.16275024 C-14.60795683 109.49337529 -4.71515136 55.48009823 0 0 Z " fill="#000000" transform="translate(1253,669)"/>
<path d="M0 0 C193.05 0 386.1 0 585 0 C585 193.38 585 386.76 585 586 C584.67 586 584.34 586 584 586 C583.94054199 585.1335083 583.88108398 584.2670166 583.81982422 583.37426758 C579.75781991 526.23316276 567.34660167 470.77712098 548.8125 416.625 C548.40854004 415.44268799 548.00458008 414.26037598 547.58837891 413.04223633 C544.99528106 405.56891773 542.12086085 398.26755149 539 391 C538.63414795 390.13681152 538.2682959 389.27362305 537.89135742 388.38427734 C535.66195678 383.12572767 533.40226702 377.88020271 531.13769531 372.63671875 C530.41337202 370.95802956 529.6911359 369.27843713 528.97167969 367.59765625 C524.25248422 356.58776852 519.02031201 345.95176499 513.31201172 335.42089844 C512.00335587 333.00619218 510.70666058 330.58530995 509.41015625 328.1640625 C498.16530196 307.30307702 485.57411665 287.41614153 472 268 C471.5364209 267.33178223 471.0728418 266.66356445 470.59521484 265.97509766 C460.73647631 251.77593871 450.07059468 238.18489053 438.71875 225.15234375 C436.2986116 222.36834427 433.98582693 219.51077243 431.6875 216.625 C427.19347848 211.07743498 422.32332731 205.91211936 417.40307617 200.74462891 C414.44287516 197.63187239 411.54398768 194.50242907 408.7734375 191.21875 C406.75891236 188.84035608 404.73178794 186.72892317 402.3125 184.75 C398.82409927 181.79055063 395.58291342 178.63229097 392.375 175.375 C389.45121972 172.41055519 386.56993722 169.53266866 383.3125 166.9375 C382.549375 166.298125 381.78625 165.65875 381 165 C381 164.34 381 163.68 381 163 C380.46375 162.79375 379.9275 162.5875 379.375 162.375 C376.55314513 160.74129455 374.66259269 158.72413902 372.46484375 156.33984375 C370.92498332 154.74891301 370.92498332 154.74891301 368 154 C366.85914636 152.89371769 365.72496923 151.77990137 364.62109375 150.63671875 C358.87669515 144.83695245 352.6440114 139.60618384 346.1875 134.625 C345.64867187 134.20839111 345.10984375 133.79178223 344.5546875 133.36254883 C342.13887034 131.52333567 339.74601083 129.85358676 337.11328125 128.3359375 C336.06720703 127.67464844 336.06720703 127.67464844 335 127 C335 126.34 335 125.68 335 125 C332.66785852 123.79371992 330.50357861 122.8345262 328 122 C327.43410156 121.42894531 326.86820313 120.85789062 326.28515625 120.26953125 C323.28249436 117.28740038 319.93633486 115.05042413 316.4375 112.6875 C315.72223145 112.20039551 315.00696289 111.71329102 314.27001953 111.21142578 C309.48566686 107.9670131 304.65594343 104.80484513 299.7578125 101.734375 C297.16328439 100.10268877 294.58968882 98.44121259 292.01953125 96.77148438 C266.79830393 80.43057881 240.21537293 66.68419954 213 54 C212.01845947 53.54206055 211.03691895 53.08412109 210.02563477 52.61230469 C205.09946499 50.34055788 200.20510148 48.24536777 195.0625 46.5 C190.82785061 45.05929304 186.73286075 43.47046944 182.62109375 41.70703125 C174.88339673 38.45759521 166.96353455 35.81957448 159 33.1875 C158.21409485 32.92676697 157.4281897 32.66603394 156.61846924 32.3973999 C133.37043306 24.69972073 109.94964959 18.14922689 86 13 C84.28901123 12.62512451 84.28901123 12.62512451 82.54345703 12.24267578 C55.55879139 6.37223604 27.68047731 1.41653249 0 1 C0 0.67 0 0.34 0 0 Z " fill="#000000" transform="translate(669,0)"/>
<path d="M0 0 C38.80593159 0 38.80593159 0 46.91659546 7.9861908 C47.73643291 8.77783567 48.55627037 9.56948055 49.40095139 10.38511467 C50.68748045 11.67948291 50.68748045 11.67948291 52 13 C53.40011259 14.36798831 53.40011259 14.36798831 54.82851028 15.76361275 C58.02307273 18.89035638 61.17894616 22.05489365 64.33447266 25.22094727 C65.5376877 26.42444505 66.74112432 27.62772137 67.94476318 28.83079529 C71.18184683 32.06759435 74.41585797 35.30744704 77.64928865 38.54789472 C81.04004962 41.94494602 84.43368028 45.33912815 87.82699585 48.73362732 C94.23896488 55.14869302 100.64838255 61.56630146 107.056867 67.98484796 C114.35847541 75.29766942 121.66295477 82.60762035 128.96766591 89.91734231 C143.98162027 104.94172333 158.99200063 119.96967063 174 135 C177.84708463 133.41631561 180.26627495 130.97244185 183.17939758 128.04092407 C183.68832037 127.53159344 184.19724315 127.02226281 184.72158784 126.49749792 C186.42505533 124.79030115 188.12126297 123.0760696 189.81762695 121.36181641 C191.03791824 120.13604937 192.25867369 118.91074427 193.4798584 117.68586731 C196.10887686 115.04713616 198.73480396 112.40537965 201.35845375 109.76131058 C205.50920577 105.57874589 209.66810667 101.40434924 213.82841492 97.23129272 C224.16252272 86.86309563 234.48734871 76.48566854 244.80725098 66.10333252 C252.82415827 58.0379478 260.84423974 49.97578461 268.87494248 41.9241327 C273.00900708 37.77855809 277.13603323 33.62614058 281.25789416 29.46843362 C283.82757287 26.8795252 286.40352294 24.29692764 288.98123932 21.7160244 C290.17264542 20.52060854 291.36147265 19.32261587 292.54746819 18.12183189 C294.17128397 16.47850784 295.80422488 14.84480114 297.43965149 13.21304321 C298.80486923 11.83978095 298.80486923 11.83978095 300.19766712 10.43877602 C313.23782233 -0.90963232 327.61999958 2 345 2 C345 95.39 345 188.78 345 285 C327.51 285 310.02 285 292 285 C292 222.96 292 160.92 292 97 C285.7429568 102.32960625 285.7429568 102.32960625 280.375 108.125 C277.48711079 111.53139659 274.47603516 114.20405868 271 117 C269.31585941 118.65176806 267.65405019 120.31847059 266 122 C264.68464463 123.32904247 263.36916153 124.65795852 262.05358887 125.98678589 C260.48294869 127.57562089 258.91235443 129.1645013 257.34179688 130.75341797 C248.58627461 139.60697331 239.81560739 148.44535132 231.03592682 157.27494621 C225.72490647 162.61698149 220.41970899 167.9645761 215.12744141 173.32519531 C210.49985277 178.01251811 205.86187151 182.68925727 201.21102381 187.35350716 C198.75225264 189.82010286 196.29904586 192.29171324 193.85826111 194.77611923 C191.14115041 197.54141074 188.40091172 200.28303238 185.65820312 203.02294922 C184.851819 203.850905 184.04543488 204.67886078 183.21461487 205.53190613 C182.46610764 206.27216537 181.7176004 207.01242462 180.94641113 207.77511597 C180.30119759 208.42586027 179.65598404 209.07660458 178.99121857 209.74706841 C177 211 177 211 174.39563751 210.81645393 C171.25559844 209.74630153 169.71745723 208.15547671 167.41796875 205.7734375 C166.56783203 204.90589844 165.71769531 204.03835938 164.84179688 203.14453125 C163.52791992 201.77361328 163.52791992 201.77361328 162.1875 200.375 C160.45426511 198.58877284 158.71862121 196.8048798 156.98046875 195.0234375 C156.21629639 194.22856934 155.45212402 193.43370117 154.66479492 192.61474609 C152.61600866 190.6044391 150.55927683 188.74279814 148.38220215 186.88121033 C143.79140374 182.87750001 139.50264174 178.61455059 135.2199707 174.28588867 C134.38137009 173.4426152 133.54276947 172.59934174 132.67875671 171.73051453 C130.39994808 169.43854594 128.12332874 167.14442575 125.84719872 164.84979796 C123.44574595 162.43075479 121.04011982 160.01587155 118.63456726 157.60090637 C110.46298227 149.39610271 102.29560152 141.18714711 94.13891602 132.9675293 C89.62252207 128.41637535 85.10059406 123.87079396 80.5726878 119.33109266 C78.18665307 116.93835496 75.80439407 114.54213439 73.42720985 112.14058495 C63.76779933 102.38391478 54.29641941 92.86769634 43 85 C43 88.33647357 46.52053474 93.05547242 48.06835938 96.09765625 C48.42607422 96.80535156 48.78378906 97.51304687 49.15234375 98.2421875 C49.48226318 98.8904248 49.81218262 99.53866211 50.15209961 100.20654297 C52.06402247 104.25059288 52.13866737 107.8222666 52.12025452 112.19425964 C52.12110894 112.93186234 52.12196337 113.66946504 52.12284368 114.42941934 C52.12449433 116.90764195 52.11898388 119.38579727 52.11352539 121.86401367 C52.1132434 123.63783263 52.11340148 125.4116517 52.1139679 127.18547058 C52.11425542 132.00746338 52.10836592 136.82943142 52.10139394 141.65141845 C52.09515295 146.68829076 52.09455601 151.7251636 52.09336853 156.76203918 C52.09025742 166.30300635 52.08204698 175.8439621 52.07201904 185.38492423 C52.06085108 196.24572878 52.05534573 207.10653387 52.05032361 217.96734273 C52.0398642 240.31156962 52.02152144 262.65578084 52 285 C34.84 285 17.68 285 0 285 C0 190.95 0 96.9 0 0 Z " fill="#F6F7FA" transform="translate(156,436)"/>
<path d="M0 0 C1.53869621 0.00056546 3.07739296 0.00024493 4.61608887 -0.00088501 C8.75579049 -0.00145427 12.89537407 0.01023028 17.03504848 0.02426291 C21.37518641 0.03684202 25.71532762 0.03794639 30.05548096 0.04031372 C38.25744519 0.04650752 46.45935553 0.06288966 54.66129613 0.0830127 C64.00600813 0.10543739 73.35072283 0.11638159 82.69545507 0.12640357 C101.902801 0.14725796 121.11007313 0.18390768 140.31738281 0.22705078 C140.31738281 17.71705078 140.31738281 35.20705078 140.31738281 53.22705078 C135.8770459 53.2416333 131.43670898 53.25621582 126.86181641 53.27124023 C112.16153827 53.32166413 97.46136458 53.3881249 82.76119041 53.46276569 C73.8518734 53.50761434 64.94259539 53.54705383 56.03320312 53.57348633 C48.26223826 53.59655535 40.49139796 53.63005169 32.72053206 53.67575234 C28.61093502 53.69956525 24.50146042 53.71837178 20.39179611 53.72466469 C16.5126228 53.73077011 12.63376228 53.75096307 8.75470543 53.78132629 C7.34155778 53.79002009 5.9283691 53.7938474 4.51519585 53.79205894 C-7.76235349 53.78144012 -19.91493482 54.99476966 -30.87011719 60.91455078 C-31.87099365 61.43891724 -31.87099365 61.43891724 -32.89208984 61.97387695 C-54.14649756 73.38373409 -67.43546562 91.88959874 -74.87011719 114.60205078 C-82.68288658 141.61462188 -79.1897455 168.75416469 -65.99121094 193.38330078 C-53.84135459 213.45452519 -36.23991368 225.26037259 -14.12866211 231.68969727 C-5.98826169 233.47800162 2.14705636 233.39613332 10.44433594 233.43237305 C11.86421992 233.44196658 13.28410114 233.45197749 14.70397949 233.46237183 C18.53807641 233.48926728 22.37218544 233.51035939 26.20632362 233.53037381 C30.22086384 233.5523288 34.23536738 233.57967069 38.24987793 233.60643005 C45.84277476 233.6562289 53.4356921 233.70121493 61.02862883 233.74445242 C69.67679979 233.79393466 78.32493391 233.84881185 86.97306919 233.90413201 C104.75447431 234.01775529 122.5359135 234.12392463 140.31738281 234.22705078 C140.31738281 251.05705078 140.31738281 267.88705078 140.31738281 285.22705078 C121.00938056 285.29507847 101.7014771 285.35021197 82.39338493 285.3824873 C73.42594959 285.3978794 64.45859464 285.41882016 55.49121094 285.45336914 C47.66457532 285.48350844 39.83799798 285.50268122 32.01130593 285.50931627 C27.87680655 285.51318753 23.74247376 285.52212026 19.60802841 285.54424095 C-23.53736487 285.76574154 -58.10059129 279.55757179 -89.93261719 248.41455078 C-105.2599701 232.91839442 -115.74968305 213.7716456 -122.68261719 193.22705078 C-122.98683594 192.40076172 -123.29105469 191.57447266 -123.60449219 190.72314453 C-136.30482975 155.53802568 -132.74780812 113.62526559 -117.42529297 79.91064453 C-116.52926997 78.0066565 -115.61155735 76.1151802 -114.68261719 74.22705078 C-114.37066406 73.58541992 -114.05871094 72.94378906 -113.73730469 72.28271484 C-107.24299245 59.07629331 -98.78555302 47.93156247 -88.68261719 37.22705078 C-87.998125 36.47810547 -87.31363281 35.72916016 -86.60839844 34.95751953 C-73.33434026 20.94737679 -56.01168801 11.42349354 -37.87011719 5.28955078 C-37.03536865 5.00700439 -36.20062012 4.72445801 -35.34057617 4.43334961 C-23.65439519 0.69684248 -12.18889042 -0.06347115 0 0 Z " fill="#F4F6FA" transform="translate(958.6826171875,435.77294921875)"/>
<path d="M0 0 C1.88232422 0.13134766 1.88232422 0.13134766 4 1 C5.48876953 3.10693359 5.48876953 3.10693359 6.8828125 5.8984375 C7.66567627 7.43818237 7.66567627 7.43818237 8.46435547 9.0090332 C9.01236816 10.11980225 9.56038086 11.23057129 10.125 12.375 C11.29646448 14.68900996 12.46834264 17.00281053 13.640625 19.31640625 C14.50204102 21.0336792 14.50204102 21.0336792 15.38085938 22.78564453 C17.49731376 26.9872788 19.67528025 31.15401756 21.875 35.3125 C22.2683252 36.05927002 22.66165039 36.80604004 23.06689453 37.57543945 C26.9897781 45.01189586 30.97070994 52.4172314 34.94613647 59.82568359 C47.01000514 82.3121777 58.92218529 104.87849149 70.70458984 127.51367188 C75.61584729 136.94002804 80.56518486 146.34503732 85.60546875 155.703125 C91.72308523 167.0626331 97.79886817 178.42709246 103.51489258 189.99609375 C106.16363363 195.35164547 108.89075356 200.65778288 111.6875 205.9375 C115.92313477 213.93362635 120.09722963 221.96060321 124.25 230 C124.88938599 231.23723277 125.52879033 232.47445605 126.16821289 233.71166992 C128.43966863 238.10720276 130.71045498 242.50308135 132.98083496 246.89916992 C135.19373864 251.18372223 137.40898942 255.46705377 139.625 259.75 C140.19250977 260.84957031 140.76001953 261.94914062 141.34472656 263.08203125 C142.15248535 264.64244141 142.15248535 264.64244141 142.9765625 266.234375 C143.48348633 267.21470703 143.99041016 268.19503906 144.51269531 269.20507812 C146.31367784 272.58945895 148.24122078 275.89052307 150.22802734 279.16894531 C151 281 151 281 150 284 C131.19 284 112.38 284 93 284 C85.45520202 270.16787037 78.00864024 256.35071863 70.875 242.3125 C69.2282439 239.07856795 67.57962159 235.845593 65.9296875 232.61328125 C65.52527435 231.82073944 65.12086121 231.02819763 64.70419312 230.2116394 C61.37880229 223.7090888 57.98696347 217.24281735 54.57696533 210.78431702 C50.88603709 203.7934055 47.24795039 196.77641872 43.625 189.75 C42.32741332 187.23667397 41.02908211 184.72373318 39.73046875 182.2109375 C39.41197464 181.59461456 39.09348053 180.97829163 38.76533508 180.34329224 C35.36154415 173.75980483 31.93283611 167.18941414 28.49755859 160.62231445 C25.79106811 155.44509524 23.10026687 150.26024159 20.42578125 145.06640625 C11.55949625 127.8438279 11.55949625 127.8438279 2 111 C-1.20645198 112.60322599 -2.10340764 115.92596892 -3.6015625 119.04296875 C-4.32241432 120.51391511 -5.04411901 121.98444376 -5.76660156 123.45458984 C-6.13676392 124.21092712 -6.50692627 124.9672644 -6.88830566 125.746521 C-8.60291246 129.22214401 -10.37250791 132.668687 -12.1484375 136.11328125 C-12.66884613 137.12405228 -12.66884613 137.12405228 -13.19976807 138.15524292 C-13.90520047 139.52453868 -14.61107221 140.8936082 -15.31738281 142.26245117 C-16.36918562 144.3012296 -17.41907116 146.34098675 -18.46875 148.38085938 C-22.24966608 155.72019457 -26.06778412 163.03866647 -29.921875 170.33984375 C-34.55499835 179.12046957 -39.09845906 187.94512779 -43.61569214 196.78582764 C-50.42206386 210.10431282 -57.25929803 223.4049183 -64.203125 236.65234375 C-66.24804489 240.55422058 -68.27613426 244.46445279 -70.296875 248.37890625 C-87.31044215 281.31044215 -87.31044215 281.31044215 -90 284 C-91.77991924 284.09370624 -93.56356739 284.11744271 -95.34594727 284.11352539 C-96.4870546 284.11344986 -97.62816193 284.11337433 -98.80384827 284.11329651 C-100.0454924 284.10813522 -101.28713654 284.10297394 -102.56640625 284.09765625 C-104.46204567 284.09553383 -104.46204567 284.09553383 -106.39598083 284.09336853 C-109.76124889 284.08870582 -113.1264499 284.0797148 -116.49169922 284.06866455 C-119.9234967 284.05844846 -123.35530109 284.05387049 -126.78710938 284.04882812 C-133.52475824 284.0377738 -140.26237525 284.0210171 -147 284 C-146.30870562 279.339173 -145.17557741 275.92176968 -142.97265625 271.73828125 C-142.66833679 271.15476395 -142.36401733 270.57124664 -142.05047607 269.970047 C-141.06233434 268.07995907 -140.06258433 266.19629174 -139.0625 264.3125 C-138.37189437 262.99697318 -137.68203989 261.68105177 -136.99291992 260.36474609 C-135.30380659 257.14264405 -133.60569227 253.92540082 -131.90405273 250.7098999 C-130.66567839 248.36767352 -129.43409162 246.02190766 -128.203125 243.67578125 C-126.62226269 240.66466005 -125.03741112 237.65569856 -123.44921875 234.6484375 C-119.11069606 226.42565053 -114.82468352 218.17527343 -110.52783203 209.93066406 C-109.0285966 207.05485356 -107.52820639 204.17964906 -106.02734375 201.3046875 C-105.53862793 200.36842529 -105.04991211 199.43216309 -104.54638672 198.4675293 C-103.55470165 196.56786011 -102.56283879 194.66828372 -101.57080078 192.76879883 C-98.96354252 187.77388099 -96.36441617 182.77493708 -93.77734375 177.76953125 C-88.08093138 166.75845116 -82.28925779 155.81615841 -76.30859375 144.95678711 C-73.06490163 139.03629814 -69.98302006 133.05560237 -67 127 C-63.67908389 120.25940936 -60.20154806 113.63658409 -56.5625 107.0625 C-50.99005336 96.98467097 -45.73503466 86.75546843 -40.5 76.5 C-35.00345402 65.73438357 -29.45771224 55.01826436 -23.59057617 44.44848633 C-17.77399419 33.89925234 -12.34818671 23.14255002 -6.87670898 12.41162109 C-6.30419907 11.29100533 -6.30419907 11.29100533 -5.72012329 10.14775085 C-4.995429 8.72874352 -4.27244126 7.30886303 -3.55136108 5.88801575 C-1.11191543 1.11191543 -1.11191543 1.11191543 0 0 Z " fill="#3A82F8" transform="translate(680,436)"/>
<path d="M0 0 C2.40879954 1.24017402 4.34073371 2.42143852 6.5 4 C7.12600098 4.43715332 7.75200195 4.87430664 8.39697266 5.32470703 C9.81135041 6.31426572 11.22073263 7.31098951 12.62597656 8.31347656 C15.23331556 10.16574906 17.86061287 11.98702066 20.4921875 13.8046875 C30.6814615 20.84815345 40.82177547 27.96142463 50.9296875 35.12109375 C53.7833899 37.1422927 56.64355237 39.15394749 59.5078125 41.16015625 C80.40590173 55.81180345 80.40590173 55.81180345 82 59 C82.17412207 60.93246952 82.26705542 62.8727341 82.3125 64.8125 C82.36857422 66.36904297 82.36857422 66.36904297 82.42578125 67.95703125 C81.78634527 72.52694524 79.2582339 74.98996345 75.72021484 77.83007812 C74.89215332 78.39146484 74.0640918 78.95285156 73.2109375 79.53125 C72.27870361 80.1701416 71.34646973 80.8090332 70.38598633 81.46728516 C69.39236084 82.13808105 68.39873535 82.80887695 67.375 83.5 C65.28163219 84.93355347 63.18919376 86.36846496 61.09765625 87.8046875 C60.06141113 88.51463867 59.02516602 89.22458984 57.95751953 89.95605469 C53.86424412 92.78492226 49.83302982 95.69406564 45.8125 98.625 C38.67153597 103.81835513 31.46151897 108.9055988 24.21630859 113.95239258 C20.36945877 116.63381746 16.53200604 119.32490684 12.73046875 122.0703125 C12.08432617 122.53671143 11.43818359 123.00311035 10.77246094 123.48364258 C9.58707024 124.34208877 8.40395522 125.20369017 7.22363281 126.0690918 C2.93067371 129.17808533 -0.47487518 130.46171534 -5.86328125 130.421875 C-9.77929961 129.64869404 -12.48716579 126.99355032 -15 124 C-16.22375872 120.32872385 -16.88747035 116.78168337 -16 113 C-12.48720473 107.98939718 -8.34534647 104.83291801 -3.3125 101.4375 C-1.78311539 100.38258067 -0.25449381 99.32655442 1.2734375 98.26953125 C2.05686523 97.73021973 2.84029297 97.1909082 3.64746094 96.63525391 C7.40929693 94.0203953 11.10871119 91.32112831 14.8125 88.625 C25.4234689 80.92817921 36.09206337 73.27195775 47 66 C47 65.34 47 64.68 47 64 C44.78383641 62.32859171 42.56195857 60.7799007 40.25 59.25 C38.77281514 58.25352614 37.29628232 57.25608518 35.8203125 56.2578125 C35.03430664 55.72833008 34.24830078 55.19884766 33.43847656 54.65332031 C29.30560837 51.8511794 25.21468589 48.98965193 21.125 46.125 C20.29186279 45.54226318 19.45872559 44.95952637 18.6003418 44.35913086 C11.95730717 39.70023799 5.37180235 34.96438781 -1.17724609 30.17431641 C-4.02634148 28.0989349 -6.82491886 26.10380494 -9.859375 24.3046875 C-13.03094907 22.37164783 -14.32278572 20.29230951 -16 17 C-16.87315639 12.58129947 -16.35967519 9.70602909 -14.3125 5.6875 C-9.92800089 0.59200103 -6.70255481 -0.57430459 0 0 Z " fill="#3980F6" transform="translate(724,775)"/>
<path d="M0 0 C3.25 1.8125 3.25 1.8125 6 4 C6.54140625 4.43054688 7.0828125 4.86109375 7.640625 5.3046875 C9.52802527 7.65851427 9.46692128 9.32301052 9.5 12.3125 C9.5309375 13.23675781 9.561875 14.16101563 9.59375 15.11328125 C8.03861915 22.67408192 0.7230558 26.59443836 -5.25 30.625 C-7.05756092 31.86679566 -8.86484836 33.1089895 -10.671875 34.3515625 C-11.57228516 34.96676758 -12.47269531 35.58197266 -13.40039062 36.21582031 C-17.12681687 38.7733638 -20.81426857 41.38431963 -24.5 44 C-33.97524162 50.70197232 -43.48758464 57.3509477 -53 64 C-51.77856187 67.6643144 -50.65420902 68.20084258 -47.50390625 70.3359375 C-46.5617627 70.98143555 -45.61961914 71.62693359 -44.64892578 72.29199219 C-43.63040527 72.97938477 -42.61188477 73.66677734 -41.5625 74.375 C-39.44569787 75.82418271 -37.32982222 77.27471959 -35.21484375 78.7265625 C-34.16022949 79.44875977 -33.10561523 80.17095703 -32.01904297 80.91503906 C-27.10900428 84.30592783 -22.28523449 87.81159743 -17.46289062 91.32543945 C-13.73960345 94.03363116 -9.99858516 96.70874948 -6.21484375 99.33203125 C-5.4347998 99.8744043 -4.65475586 100.41677734 -3.85107422 100.97558594 C-2.36818944 102.00382906 -0.88173802 103.0269551 0.60888672 104.04394531 C8.55330302 109.56127592 8.55330302 109.56127592 9.43359375 114.3671875 C9.44246991 120.06568474 8.97753588 123.58051568 5 128 C2.18764936 130.20970408 -1.06901557 130.67226187 -4.62890625 130.5546875 C-9.46894943 129.4224204 -13.27312349 126.20273594 -17.22070312 123.30078125 C-19.11520941 121.91577446 -21.03066199 120.56465949 -22.953125 119.21875 C-26.576632 116.68089835 -30.18716621 114.12531943 -33.79443359 111.56445312 C-37.35837487 109.03647707 -40.92945626 106.51863739 -44.5 104 C-45.91670277 103.00005115 -47.3333694 102.00005109 -48.75 101 C-49.45125 100.505 -50.1525 100.01 -50.875 99.5 C-53 98 -55.125 96.5 -57.25 95 C-57.9524585 94.50443604 -58.65491699 94.00887207 -59.37866211 93.49829102 C-60.78422533 92.50554829 -62.18870042 91.51126301 -63.59204102 90.51538086 C-67.29578561 87.89015428 -71.0189252 85.30037375 -74.77734375 82.75390625 C-75.55722656 82.21958984 -76.33710938 81.68527344 -77.140625 81.13476562 C-78.63512894 80.1117421 -80.13616073 79.09816884 -81.64453125 78.09570312 C-85.43869496 75.48267276 -87.92615188 73.70375724 -89 69 C-89.37109375 66.75390625 -89.37109375 66.75390625 -89.4375 64.5625 C-89.47746094 63.84191406 -89.51742188 63.12132812 -89.55859375 62.37890625 C-87.8758362 55.21247723 -80.43896134 51.21387059 -74.75 47.375 C-72.9463503 46.13580124 -71.14296919 44.89621147 -69.33984375 43.65625 C-68.43991699 43.04136719 -67.53999023 42.42648437 -66.61279297 41.79296875 C-62.81996338 39.19022716 -59.06504768 36.53533556 -55.3125 33.875 C-53.92329353 32.8930644 -52.53397094 31.91129306 -51.14453125 30.9296875 C-50.46213379 30.44725586 -49.77973633 29.96482422 -49.07666016 29.46777344 C-44.85219135 26.48193915 -40.62524079 23.4996181 -36.3984375 20.51708984 C-32.71835346 17.92003611 -29.03973058 15.32094714 -25.36328125 12.71875 C-24.60144531 12.17992187 -23.83960938 11.64109375 -23.0546875 11.0859375 C-21.60500446 10.06055193 -20.15575556 9.03455218 -18.70703125 8.0078125 C-16.80889173 6.66576854 -14.90498406 5.33230113 -13 4 C-12.44038574 3.59974609 -11.88077148 3.19949219 -11.30419922 2.78710938 C-7.30120122 -0.00989698 -4.91278343 -0.7018262 0 0 Z " fill="#3981F6" transform="translate(537,775)"/>
<path d="M0 0 C0.76828125 -0.02449219 1.5365625 -0.04898438 2.328125 -0.07421875 C5.86586778 -0.09258074 8.05843529 0.04900738 11.1640625 1.8359375 C13.34854088 5.63249083 13.14055152 9.08159561 12.625 13.375 C11.61731798 16.49749982 10.17716389 19.30433324 8.63671875 22.1953125 C8.22255707 23.00816711 7.80839539 23.82102173 7.38168335 24.6585083 C6.04144394 27.28100246 4.67707436 29.89009956 3.3125 32.5 C2.38067562 34.31486406 1.45091559 36.13078949 0.52319336 37.94775391 C-0.85357548 40.64353078 -2.23150781 43.33861804 -3.61637878 46.03024292 C-6.97023556 52.54952416 -10.19537751 59.11378002 -13.3125 65.75 C-17.59151549 74.80898889 -22.05483222 83.76742851 -26.55615234 92.71777344 C-29.93038189 99.4423934 -33.2209725 106.19875044 -36.4375 113 C-41.35611134 123.35702183 -46.40770406 133.64799451 -51.50338745 143.91888428 C-52.41516854 145.7593249 -53.32414291 147.60115877 -54.23025513 149.44439697 C-55.51027935 152.04631413 -56.80064621 154.64284481 -58.09375 157.23828125 C-58.48082626 158.02990158 -58.86790253 158.82152191 -59.26670837 159.63713074 C-59.63180008 160.36442886 -59.99689178 161.09172699 -60.37304688 161.84106445 C-60.68850464 162.47784622 -61.0039624 163.11462799 -61.32897949 163.77070618 C-62.375 165.375 -62.375 165.375 -65.375 167.375 C-68.05268864 167.64970888 -70.57125281 167.79078043 -73.25 167.8125 C-73.95769531 167.84537109 -74.66539062 167.87824219 -75.39453125 167.91210938 C-79.23053797 167.95139808 -81.21432037 167.48664104 -84.3828125 165.28515625 C-86.89816423 161.6107699 -86.71529284 159.76883933 -86.375 155.375 C-85.31010437 152.41015625 -85.31010437 152.41015625 -83.7956543 149.4375 C-83.23053635 148.31102051 -82.6654184 147.18454102 -82.08317566 146.02392578 C-81.45538872 144.80751462 -80.82739731 143.59120897 -80.19921875 142.375 C-79.55166585 141.09554513 -78.90543609 139.81541985 -78.26045227 138.53466797 C-76.55557192 135.15724624 -74.83447825 131.78836117 -73.10931396 128.42126465 C-70.39277246 123.11109203 -67.70336369 117.78705443 -65.00819397 112.46601295 C-64.00757008 110.49181481 -63.00512802 108.51854705 -62.00256348 106.54533386 C-57.73236798 98.12969948 -53.59817382 89.65788293 -49.56080627 81.12800598 C-43.57141815 68.51078035 -37.26703788 56.04790376 -31.00427246 43.56488037 C-29.3151484 40.19700065 -27.62837979 36.82794166 -25.94140625 33.45898438 C-19.82358309 21.24277695 -19.82358309 21.24277695 -16.90313721 15.43222046 C-15.89998966 13.42530433 -14.90550432 11.41403027 -13.92059326 9.39810181 C-13.25873016 8.04729019 -13.25873016 8.04729019 -12.58349609 6.66918945 C-12.20276947 5.88421585 -11.82204285 5.09924225 -11.42977905 4.29048157 C-8.70865641 -0.65108439 -5.08195067 0.00844178 0 0 Z " fill="#3A82F6" transform="translate(664.375,756.625)"/>
<path d="M0 0 C0 3 0 3 -1.22167969 4.54638672 C-1.78274414 5.08537598 -2.34380859 5.62436523 -2.921875 6.1796875 C-3.53546875 6.77910156 -4.1490625 7.37851562 -4.78125 7.99609375 C-5.4309375 8.61613281 -6.080625 9.23617188 -6.75 9.875 C-8.01796008 11.09914845 -9.28363928 12.32566442 -10.546875 13.5546875 C-11.14693359 14.13831055 -11.74699219 14.72193359 -12.36523438 15.32324219 C-14.19477662 17.14183447 -14.19477662 17.14183447 -16.328125 19.9453125 C-16.87984375 20.62335938 -17.4315625 21.30140625 -18 22 C-18.66 22 -19.32 22 -20 22 C-20 22.66 -20 23.32 -20 24 C-21.61974559 25.71230248 -23.2958946 27.37163262 -25 29 C-25.763125 29.78375 -26.52625 30.5675 -27.3125 31.375 C-29.49127146 33.50310236 -31.7007468 35.50702631 -34 37.5 C-38.13730594 41.09394493 -41.97421629 44.73749697 -45.4375 49 C-48.06751232 52.07903881 -50.8625034 54.45078401 -54 57 C-56.77265157 59.63740027 -59.29605342 62.33368058 -61.6875 65.3125 C-62.450625 66.199375 -63.21375 67.08625 -64 68 C-64.66 68 -65.32 68 -66 68 C-66.25007813 68.58910156 -66.50015625 69.17820312 -66.7578125 69.78515625 C-68.16438247 72.29309705 -69.65554334 73.62424578 -71.875 75.4375 C-75.00890498 78.08190815 -77.44644863 80.78746764 -80 84 C-82.27061952 86.07769107 -84.61735078 88.05238505 -87 90 C-87.66 89.67 -88.32 89.34 -89 89 C-59.63 59.63 -30.26 30.26 0 0 Z " fill="#EBECEF" transform="translate(421,482)"/>
<path d="M0 0 C0 3 0 3 -1.42700195 4.49682617 C-2.08659912 5.02767822 -2.74619629 5.55853027 -3.42578125 6.10546875 C-6.62940711 8.78844368 -9.62233991 11.56122532 -12.54296875 14.55078125 C-13.30673828 15.33130859 -14.07050781 16.11183594 -14.85742188 16.91601562 C-16.42626804 18.52957324 -17.9913073 20.14684003 -19.55273438 21.76757812 C-20.31263672 22.54166016 -21.07253906 23.31574219 -21.85546875 24.11328125 C-22.53246826 24.81235596 -23.20946777 25.51143066 -23.90698242 26.23168945 C-26.16930151 28.14303637 -28.20900499 29.05710039 -31 30 C-26.68431972 24.8538108 -22.37872495 19.91332224 -17.125 15.6875 C-13.92900586 13.08305233 -11.34708075 10.06251911 -8.671875 6.9375 C-2.68548387 0 -2.68548387 0 0 0 Z " fill="#262933" transform="translate(448,533)"/>
<path d="M0 0 C0 3 0 3 -1.22167969 4.54638672 C-1.78274414 5.08537598 -2.34380859 5.62436523 -2.921875 6.1796875 C-3.53546875 6.77910156 -4.1490625 7.37851562 -4.78125 7.99609375 C-5.4309375 8.61613281 -6.080625 9.23617188 -6.75 9.875 C-8.01796008 11.09914845 -9.28363928 12.32566442 -10.546875 13.5546875 C-11.14693359 14.13831055 -11.74699219 14.72193359 -12.36523438 15.32324219 C-14.19477662 17.14183447 -14.19477662 17.14183447 -16.328125 19.9453125 C-16.87984375 20.62335938 -17.4315625 21.30140625 -18 22 C-18.66 22 -19.32 22 -20 22 C-20 22.66 -20 23.32 -20 24 C-21.61974559 25.71230248 -23.2958946 27.37163262 -25 29 C-25.86625 29.886875 -26.7325 30.77375 -27.625 31.6875 C-30 34 -30 34 -33 36 C-33 33 -33 33 -31.74719238 31.38642883 C-31.16095093 30.80684921 -30.57470947 30.22726959 -29.97070312 29.63012695 C-29.31001831 28.96966873 -28.6493335 28.30921051 -27.96862793 27.6287384 C-27.24679321 26.92238754 -26.5249585 26.21603668 -25.78125 25.48828125 C-25.04878052 24.76005661 -24.31631104 24.03183197 -23.56164551 23.28153992 C-21.21469173 20.95141304 -18.85753427 18.63191672 -16.5 16.3125 C-14.9094745 14.73701608 -13.31962177 13.16085266 -11.73046875 11.58398438 C-7.82809217 7.7147303 -3.91728183 3.85415989 0 0 Z " fill="#EFF0F2" transform="translate(421,482)"/>
<path d="M0 0 C0.33 0 0.66 0 1 0 C2.125 6.75 2.125 6.75 1 9 C0.9310528 10.37342831 0.91532292 11.75002102 0.9375 13.125 C0.958125 14.40375 0.97875 15.6825 1 17 C0.34 17 -0.32 17 -1 17 C-1 22.61 -1 28.22 -1 34 C-1.33 34 -1.66 34 -2 34 C-2.21242223 22.47854499 -2.35506098 11.33373096 0 0 Z " fill="#4D5159" transform="translate(881,557)"/>
<path d="M0 0 C3.65433405 4.64111269 6.23771125 9.79912822 9 15 C9.433125 15.77730469 9.86625 16.55460938 10.3125 17.35546875 C13.09095498 22.49753995 13.09095498 22.49753995 12.59765625 25.22265625 C12.40042969 25.80917969 12.20320312 26.39570312 12 27 C9.98661799 23.25703716 7.99166487 19.50455742 6 15.75 C5.42765625 14.68652344 4.8553125 13.62304688 4.265625 12.52734375 C3.72421875 11.50253906 3.1828125 10.47773437 2.625 9.421875 C2.12226562 8.47924805 1.61953125 7.53662109 1.1015625 6.56542969 C0 4 0 4 0 0 Z " fill="#3481EC" transform="translate(697,571)"/>
<path d="M0 0 C0.66 0.33 1.32 0.66 2 1 C1.29875 1.680625 0.5975 2.36125 -0.125 3.0625 C-2.17083356 5.09684011 -4.03717547 7.21432517 -5.875 9.4375 C-8.91600162 13.04868943 -12.33419466 16.03915723 -16 19 C-16.66 18.67 -17.32 18.34 -18 18 C-12.06 12.06 -6.12 6.12 0 0 Z " fill="#E6E6E9" transform="translate(350,553)"/>
<path d="M0 0 C0.66 0 1.32 0 2 0 C4.31 4.95 6.62 9.9 9 15 C8.01 15.495 8.01 15.495 7 16 C5.82558465 13.89983377 4.66035988 11.79541245 3.5 9.6875 C3.16613281 9.09259766 2.83226562 8.49769531 2.48828125 7.88476562 C0.93174886 5.04171156 0 3.29339012 0 0 Z " fill="#3581ED" transform="translate(688,555)"/>
<path d="M0 0 C0 0.66 0 1.32 0 2 C-4.29 2.99 -8.58 3.98 -13 5 C-7.97190886 -0.02809114 -6.85648559 -0.12697196 0 0 Z " fill="#3377D8" transform="translate(537,775)"/>
<path d="M0 0 C0.99 0.33 1.98 0.66 3 1 C0.36 3.64 -2.28 6.28 -5 9 C-5.99 8.67 -6.98 8.34 -8 8 C-5.36 5.36 -2.72 2.72 0 0 Z " fill="#111520" transform="translate(345,634)"/>
<path d="M0 0 C3.56521654 1.78260827 6.71455357 3.75992289 10 6 C9.01 6.33 8.02 6.66 7 7 C6.67 7.99 6.34 8.98 6 10 C4.02 6.7 2.04 3.4 0 0 Z " fill="#2C2E36" transform="translate(196,519)"/>
<path d="M0 0 C0.66 0.33 1.32 0.66 2 1 C0.66667905 4.99996286 -1.4957827 5.83782337 -5 8 C-5.66 7.34 -6.32 6.68 -7 6 C-4.69 4.02 -2.38 2.04 0 0 Z " fill="#1B1F2A" transform="translate(915,503)"/>
<path d="M0 0 C3 1 3 1 4.6875 3.9375 C6 7 6 7 6 9 C3 8 3 8 1.3125 5.0625 C0 2 0 2 0 0 Z " fill="#0D1831" transform="translate(766,710)"/>
<path d="M0 0 C0.33 0.99 0.66 1.98 1 3 C-0.32 4.32 -1.64 5.64 -3 7 C-3.99 6.67 -4.98 6.34 -6 6 C-4.02 4.02 -2.04 2.04 0 0 Z " fill="#1B1F29" transform="translate(360,619)"/>
<path d="M0 0 C0.33 0 0.66 0 1 0 C1 2.64 1 5.28 1 8 C0.34 8 -0.32 8 -1 8 C-1.33 8.66 -1.66 9.32 -2 10 C-1.54177532 6.53058454 -1.10868317 3.32604951 0 0 Z " fill="#353944" transform="translate(884,547)"/>
</svg>
